<svg xmlns="http://www.w3.org/2000/svg" width="45.789" height="29.866" viewBox="0 0 45.789 29.866"><path d="M31.356,19.442a5.971,5.971,0,1,0-5.971-5.971A5.946,5.946,0,0,0,31.356,19.442Zm-15.923,0a5.971,5.971,0,1,0-5.971-5.971A5.946,5.946,0,0,0,15.433,19.442Zm0,3.981C10.8,23.423,1.5,25.752,1.5,30.39v4.976H29.366V30.39C29.366,25.752,20.07,23.423,15.433,23.423Zm15.923,0c-.577,0-1.234.04-1.931.1,2.309,1.672,3.921,3.921,3.921,6.867v4.976H45.289V30.39C45.289,25.752,35.994,23.423,31.356,23.423Z" transform="translate(-0.5 -6.5)" fill="none" stroke="#000" stroke-width="2"/></svg>